<svg width="400" height="600" viewBox="0 0 400 600" fill="none" xmlns="http://www.w3.org/2000/svg">
<rect width="400" height="600" rx="13" fill="url(#paint0_linear)"/>
<path fill-rule="evenodd" clip-rule="evenodd" d="M93.0451 133.361C93.2313 133.361 93.3822 133.512 93.3822 133.698C93.3822 133.885 93.2313 134.036 93.0451 134.036C92.8589 134.036 92.708 133.885 92.708 133.698C92.708 133.512 92.8589 133.361 93.0451 133.361ZM95.1666 135.339C95.0629 135.416 94.9686 135.482 94.8743 135.551C94.2968 135.964 93.7829 136.332 93.6273 137.047C93.526 137.517 93.7334 138.151 93.9738 138.883C94.2614 139.754 94.5891 140.752 94.5396 141.878C94.45 143.935 93.724 145.578 92.4087 146.703C91.1264 147.801 89.2948 148.398 86.9612 148.4C86.3366 148.4 85.7096 148.372 85.0896 148.344C83.5079 148.27 81.9569 148.2 80.7783 148.624C79.892 148.945 79.1684 149.495 78.5296 150.21C77.8766 150.939 77.3109 151.843 76.7523 152.849C76.691 152.957 76.5731 153.014 76.4553 152.997C75.5642 152.915 74.9584 152.615 74.6001 152.091C74.355 151.735 74.2371 151.284 74.2254 150.736C73.5866 151.223 72.91 151.308 72.2948 151.121C71.8658 150.991 71.4722 150.729 71.1469 150.378C70.8287 150.036 70.5741 149.606 70.4161 149.136C70.0791 148.129 70.1804 146.932 71.0361 145.991C70.3219 145.576 69.7632 145.056 69.412 144.403C69.0018 143.638 68.8793 142.701 69.1291 141.545C69.1645 141.384 69.3201 141.283 69.4803 141.318C69.5534 141.335 69.6147 141.375 69.6548 141.432C71.0691 143.202 72.7898 144.001 74.7416 144.068C76.5048 144.129 78.4659 143.598 80.5662 142.649C78.7653 142.25 77.219 141.552 76.0239 140.433C74.6379 139.138 73.7351 137.295 73.4663 134.725C72.7333 133.132 72.3208 131.553 72.276 129.991C72.2312 128.41 72.5683 126.85 73.3343 125.316C73.3438 125.295 73.3579 125.269 73.3721 125.238C73.5677 124.84 73.959 124.04 74.5035 124.061C74.6379 124.066 74.7628 124.118 74.8759 124.217C74.9655 124.295 75.0433 124.403 75.1164 124.545C75.1258 124.561 75.1329 124.58 75.1376 124.597C75.3497 125.25 75.642 125.883 76.0286 126.489C76.0993 126.423 76.1724 126.355 76.2455 126.284C76.394 126.138 76.5354 125.984 76.6533 125.828C76.8041 125.628 76.9125 125.427 77.0186 125.227C77.1671 124.951 77.3133 124.674 77.5561 124.398C77.6574 124.283 77.7706 124.177 77.8908 124.103C77.8978 124.099 77.9026 124.096 77.9096 124.092C78.0841 123.995 78.2679 123.964 78.4589 124.051C78.5909 124.113 78.7064 124.224 78.803 124.387C78.8808 124.514 78.9492 124.679 79.0081 124.877C80.2197 128.042 82.6334 129.215 84.6795 130.206C85.6624 130.683 86.5652 131.119 87.2464 131.723C87.7226 132.146 88.1681 132.679 88.5641 133.302C88.8093 133.684 89.0355 134.1 89.2383 134.543C89.283 134.383 89.3325 134.225 89.3891 134.069C89.6461 133.361 90.0821 132.681 90.6738 132.233C91.19 131.844 91.8217 131.631 92.5501 131.728C92.7505 131.754 92.9485 131.806 93.1418 131.881C93.3303 131.955 93.5142 132.051 93.6886 132.174C93.7688 132.228 93.8489 132.29 93.9267 132.358C93.9998 132.422 94.0752 132.493 94.1483 132.573C94.2567 132.688 94.3604 132.816 94.4547 132.955C94.5396 133.08 94.6221 133.212 94.6999 133.356L95.1076 133.71L95.3622 133.93L95.4471 133.998C95.8737 134.345 96.0411 134.48 95.9916 134.723C95.9539 134.916 95.8337 134.97 95.638 135.06C95.5272 135.117 95.3599 135.195 95.1666 135.339ZM76.3727 126.982C76.467 127.107 76.566 127.233 76.6698 127.355C76.9715 127.709 77.3038 128.033 77.6598 128.337C78.2043 128.802 78.8054 129.22 79.43 129.623C79.7199 129.809 80.0122 129.982 80.3092 130.14C80.941 130.47 81.5703 130.753 82.1926 131.034C82.5203 131.181 82.8456 131.327 83.1709 131.48C83.7248 131.735 84.2693 132.002 84.7926 132.306C85.4385 132.684 86.0372 133.134 86.5935 133.642C87.3784 134.343 88.1516 135.228 88.9106 136.403L89.019 135.523C88.7527 134.824 88.4345 134.182 88.0738 133.621C87.7061 133.045 87.2983 132.554 86.8622 132.167C86.2446 131.619 85.3772 131.199 84.4296 130.739C82.2846 129.699 79.7553 128.471 78.4612 125.085C78.4565 125.073 78.4518 125.061 78.4494 125.05C78.4023 124.896 78.3551 124.776 78.3033 124.691C78.2679 124.634 78.242 124.599 78.2184 124.59C78.2114 124.587 78.2184 124.599 78.2019 124.608C78.1996 124.611 78.1949 124.613 78.1901 124.615C78.1312 124.651 78.0676 124.715 78.0016 124.788C77.8012 125.017 77.6716 125.26 77.5396 125.505C77.4193 125.729 77.2991 125.956 77.1247 126.187C76.9903 126.364 76.83 126.541 76.6603 126.709C76.5684 126.801 76.4694 126.893 76.3727 126.982ZM94.5325 135.067C94.6291 134.999 94.7258 134.928 94.8154 134.862C95.0157 134.713 95.1854 134.626 95.3174 134.565C95.1289 134.546 94.8672 134.279 94.7281 134.159L94.2873 133.774C94.2567 133.748 94.2284 133.717 94.2096 133.68C94.1365 133.538 94.0587 133.408 93.9786 133.29C93.8961 133.172 93.8136 133.068 93.7263 132.976C93.6721 132.917 93.6108 132.861 93.5472 132.804C93.4883 132.752 93.427 132.705 93.361 132.66C93.2219 132.566 93.0781 132.488 92.932 132.431C92.7811 132.372 92.6302 132.332 92.477 132.313C91.9184 132.238 91.4352 132.403 91.0344 132.705C90.5394 133.078 90.1693 133.661 89.9478 134.27C89.6908 134.977 89.5871 135.768 89.4881 136.547L89.4669 136.712L89.3938 137.304C89.382 137.392 89.3349 137.472 89.2524 137.521C89.1416 137.59 89.0025 137.573 88.9083 137.493C88.88 137.472 88.8564 137.444 88.8375 137.413C88.7951 137.342 88.755 137.271 88.7126 137.203C88.1634 136.316 87.5647 135.499 86.8999 134.779C86.7726 134.64 86.6406 134.506 86.5063 134.373C85.3041 133.215 84.0666 132.547 82.8055 131.959C82.5721 131.853 82.3388 131.749 82.1031 131.645C81.4218 131.343 80.7335 131.037 80.0594 130.678C79.1236 130.189 78.176 129.597 77.2143 128.752C76.856 128.438 76.5354 128.11 76.2455 127.771C76.0687 127.565 75.9013 127.351 75.7457 127.126C75.6845 127.039 75.6255 126.952 75.5666 126.862C75.1376 126.201 74.8147 125.507 74.5836 124.795C74.5506 124.731 74.5176 124.686 74.4894 124.66C74.4823 124.653 74.487 124.651 74.4846 124.651C74.322 124.644 74.0439 125.215 73.9048 125.498C73.8906 125.526 73.8765 125.555 73.8647 125.581C73.1434 127.025 72.8275 128.49 72.8676 129.977C72.91 131.468 73.3108 132.986 74.025 134.522C74.0391 134.55 74.0462 134.583 74.0509 134.616C74.2961 137.057 75.1376 138.796 76.427 140.002C77.7211 141.212 79.4795 141.901 81.5491 142.236C81.6434 142.248 81.7306 142.307 81.7778 142.399C81.8508 142.545 81.7896 142.722 81.6434 142.796C79.1519 144.025 76.8183 144.733 74.7251 144.66C72.7875 144.594 71.062 143.867 69.61 142.288C69.5416 143.015 69.6618 143.619 69.9329 144.124C70.2771 144.766 70.8734 145.262 71.649 145.653C71.6867 145.67 71.722 145.696 71.7527 145.731C71.8587 145.854 71.8446 146.04 71.722 146.147C70.8027 146.942 70.6707 148.039 70.9772 148.952C71.1068 149.342 71.3166 149.696 71.5806 149.979C71.8352 150.255 72.1392 150.46 72.4645 150.557C73.0468 150.734 73.7209 150.559 74.3361 149.814C74.3974 149.736 74.4988 149.689 74.6049 149.703C74.7651 149.724 74.8807 149.873 74.8594 150.033C74.7581 150.8 74.8217 151.374 75.0881 151.761C75.3214 152.1 75.7269 152.308 76.3327 152.393C76.8795 151.423 77.4406 150.548 78.0911 149.821C78.7936 149.037 79.5927 148.429 80.578 148.072C81.8673 147.605 83.4749 147.68 85.1155 147.756C85.7355 147.784 86.3625 147.813 86.9612 147.813C89.1487 147.81 90.8506 147.263 92.0268 146.257C93.2148 145.24 93.8701 143.742 93.9526 141.854C93.9974 140.842 93.6863 139.895 93.4128 139.069C93.1465 138.255 92.9131 137.55 93.0498 136.924C93.2525 135.983 93.856 135.553 94.5325 135.067ZM76.4529 152.997C76.4175 152.992 76.3822 152.981 76.3492 152.962L76.4529 152.997ZM92.4275 141.358C92.4393 141.196 92.5831 141.075 92.7457 141.087C92.9084 141.099 93.031 141.243 93.0168 141.406C92.9225 142.567 92.5996 143.546 92.0527 144.341C91.5035 145.141 90.7327 145.752 89.7403 146.175C89.5895 146.239 89.4174 146.168 89.3538 146.019C89.2901 145.868 89.3608 145.696 89.5093 145.632C90.3956 145.252 91.0816 144.712 91.5672 144.006C92.0551 143.298 92.3427 142.416 92.4275 141.358ZM76.0003 132.894C76.0404 132.736 76.2007 132.639 76.3586 132.679C76.5165 132.719 76.6132 132.88 76.5731 133.038C76.3869 133.776 76.7145 134.522 77.3038 135.131C77.7093 135.549 78.2349 135.903 78.8101 136.15C79.3852 136.398 80.0028 136.537 80.5874 136.528C81.4383 136.516 82.2256 136.186 82.7136 135.407C82.8008 135.268 82.9823 135.225 83.119 135.313C83.2581 135.4 83.3005 135.582 83.2133 135.718C82.6051 136.691 81.6363 137.101 80.5945 137.118C79.984 137.127 79.3499 136.998 78.7559 136.766C78.7535 137.208 78.9114 137.646 79.1778 138.045C79.5149 138.55 80.0264 138.989 80.618 139.291C81.2073 139.593 81.8768 139.759 82.5297 139.714C83.1968 139.669 83.8521 139.402 84.3966 138.841C84.5097 138.723 84.696 138.72 84.8138 138.833C84.9317 138.947 84.934 139.133 84.8209 139.251C84.1656 139.931 83.3759 140.252 82.5698 140.306C81.8061 140.358 81.0305 140.167 80.3493 139.82C79.6704 139.473 79.0812 138.963 78.6875 138.376C78.3056 137.805 78.1053 137.158 78.1784 136.507C77.6881 136.249 77.2425 135.921 76.8772 135.544C76.1559 134.791 75.7599 133.854 76.0003 132.894ZM73.9896 146.649C73.8293 146.628 73.7162 146.477 73.7374 146.316C73.7586 146.156 73.9095 146.043 74.0698 146.064C74.949 146.184 75.8282 146.243 76.6886 146.208C77.5419 146.173 78.3764 146.045 79.1707 145.797C79.3263 145.748 79.4913 145.835 79.5408 145.991C79.5832 146.13 79.5196 146.279 79.3923 146.342C78.8501 146.637 78.3056 146.935 77.7918 147.253C77.2756 147.574 76.7782 147.921 76.3232 148.318C76.2007 148.424 76.0145 148.412 75.9084 148.289C75.8023 148.167 75.8141 147.98 75.9367 147.874C76.4175 147.454 76.9408 147.088 77.483 146.751L77.5066 146.737C77.2449 146.765 76.9809 146.784 76.7145 146.796C75.8165 146.833 74.8995 146.774 73.9896 146.649Z" fill="white"/>
<path fill-rule="evenodd" clip-rule="evenodd" d="M148.045 119.361C148.231 119.361 148.382 119.512 148.382 119.698C148.382 119.885 148.231 120.036 148.045 120.036C147.859 120.036 147.708 119.885 147.708 119.698C147.708 119.512 147.859 119.361 148.045 119.361ZM150.167 121.339C150.063 121.416 149.969 121.482 149.874 121.551C149.297 121.964 148.783 122.332 148.627 123.047C148.526 123.517 148.733 124.151 148.974 124.883C149.261 125.754 149.589 126.752 149.54 127.878C149.45 129.935 148.724 131.578 147.409 132.703C146.126 133.801 144.295 134.398 141.961 134.4C141.337 134.4 140.71 134.372 140.09 134.344C138.508 134.27 136.957 134.2 135.778 134.624C134.892 134.945 134.168 135.495 133.53 136.21C132.877 136.939 132.311 137.843 131.752 138.849C131.691 138.957 131.573 139.014 131.455 138.997C130.564 138.915 129.958 138.615 129.6 138.091C129.355 137.735 129.237 137.284 129.225 136.736C128.587 137.223 127.91 137.308 127.295 137.121C126.866 136.991 126.472 136.729 126.147 136.378C125.829 136.036 125.574 135.606 125.416 135.136C125.079 134.129 125.18 132.932 126.036 131.991C125.322 131.576 124.763 131.056 124.412 130.403C124.002 129.638 123.879 128.701 124.129 127.545C124.164 127.384 124.32 127.283 124.48 127.318C124.553 127.335 124.615 127.375 124.655 127.432C126.069 129.202 127.79 130.001 129.742 130.068C131.505 130.129 133.466 129.598 135.566 128.649C133.765 128.25 132.219 127.552 131.024 126.433C129.638 125.138 128.735 123.295 128.466 120.725C127.733 119.132 127.321 117.553 127.276 115.991C127.231 114.41 127.568 112.85 128.334 111.316C128.344 111.295 128.358 111.269 128.372 111.238C128.568 110.84 128.959 110.04 129.504 110.061C129.638 110.066 129.763 110.118 129.876 110.217C129.966 110.295 130.043 110.403 130.116 110.545C130.126 110.561 130.133 110.58 130.138 110.597C130.35 111.25 130.642 111.883 131.029 112.489C131.099 112.423 131.172 112.355 131.245 112.284C131.394 112.138 131.535 111.984 131.653 111.828C131.804 111.628 131.913 111.427 132.019 111.227C132.167 110.951 132.313 110.674 132.556 110.398C132.657 110.283 132.771 110.177 132.891 110.103C132.898 110.099 132.903 110.096 132.91 110.092C133.084 109.995 133.268 109.964 133.459 110.051C133.591 110.113 133.706 110.224 133.803 110.387C133.881 110.514 133.949 110.679 134.008 110.877C135.22 114.042 137.633 115.215 139.679 116.206C140.662 116.683 141.565 117.119 142.246 117.723C142.723 118.146 143.168 118.679 143.564 119.302C143.809 119.684 144.036 120.1 144.238 120.543C144.283 120.383 144.333 120.225 144.389 120.069C144.646 119.361 145.082 118.681 145.674 118.233C146.19 117.844 146.822 117.631 147.55 117.728C147.75 117.754 147.948 117.806 148.142 117.881C148.33 117.955 148.514 118.051 148.689 118.174C148.769 118.228 148.849 118.29 148.927 118.358C149 118.422 149.075 118.493 149.148 118.573C149.257 118.688 149.36 118.816 149.455 118.955C149.54 119.08 149.622 119.212 149.7 119.356L150.108 119.71L150.362 119.93L150.447 119.998C150.874 120.345 151.041 120.48 150.992 120.723C150.954 120.916 150.834 120.97 150.638 121.06C150.527 121.117 150.36 121.195 150.167 121.339ZM131.373 112.982C131.467 113.107 131.566 113.233 131.67 113.355C131.971 113.709 132.304 114.033 132.66 114.337C133.204 114.802 133.805 115.22 134.43 115.623C134.72 115.809 135.012 115.982 135.309 116.14C135.941 116.47 136.57 116.753 137.193 117.034C137.52 117.181 137.846 117.327 138.171 117.48C138.725 117.735 139.269 118.002 139.793 118.306C140.438 118.684 141.037 119.134 141.593 119.642C142.378 120.343 143.152 121.228 143.911 122.403L144.019 121.523C143.753 120.824 143.434 120.182 143.074 119.621C142.706 119.045 142.298 118.554 141.862 118.167C141.245 117.619 140.377 117.199 139.43 116.739C137.285 115.699 134.755 114.471 133.461 111.085C133.456 111.073 133.452 111.061 133.449 111.05C133.402 110.896 133.355 110.776 133.303 110.691C133.268 110.634 133.242 110.599 133.218 110.59C133.211 110.587 133.218 110.599 133.202 110.608C133.2 110.611 133.195 110.613 133.19 110.615C133.131 110.651 133.068 110.715 133.002 110.788C132.801 111.017 132.672 111.26 132.54 111.505C132.419 111.729 132.299 111.956 132.125 112.187C131.99 112.364 131.83 112.541 131.66 112.709C131.568 112.801 131.469 112.893 131.373 112.982ZM149.532 121.067C149.629 120.999 149.726 120.928 149.815 120.862C150.016 120.713 150.185 120.626 150.317 120.565C150.129 120.546 149.867 120.279 149.728 120.159L149.287 119.774C149.257 119.748 149.228 119.717 149.21 119.68C149.136 119.538 149.059 119.408 148.979 119.29C148.896 119.172 148.814 119.068 148.726 118.976C148.672 118.917 148.611 118.861 148.547 118.804C148.488 118.752 148.427 118.705 148.361 118.66C148.222 118.566 148.078 118.488 147.932 118.431C147.781 118.372 147.63 118.332 147.477 118.313C146.918 118.238 146.435 118.403 146.034 118.705C145.539 119.078 145.169 119.661 144.948 120.27C144.691 120.977 144.587 121.768 144.488 122.547L144.467 122.712L144.394 123.304C144.382 123.392 144.335 123.472 144.252 123.521C144.142 123.59 144.003 123.573 143.908 123.493C143.88 123.472 143.856 123.444 143.838 123.413C143.795 123.342 143.755 123.271 143.713 123.203C143.163 122.316 142.565 121.499 141.9 120.779C141.773 120.64 141.641 120.506 141.506 120.373C140.304 119.215 139.067 118.547 137.806 117.959C137.572 117.853 137.339 117.749 137.103 117.645C136.422 117.343 135.734 117.037 135.059 116.678C134.124 116.189 133.176 115.597 132.214 114.752C131.856 114.438 131.535 114.11 131.245 113.771C131.069 113.565 130.901 113.351 130.746 113.126C130.684 113.039 130.626 112.952 130.567 112.862C130.138 112.201 129.815 111.507 129.584 110.795C129.551 110.731 129.518 110.686 129.489 110.66C129.482 110.653 129.487 110.651 129.485 110.651C129.322 110.644 129.044 111.215 128.905 111.498C128.891 111.526 128.876 111.555 128.865 111.581C128.143 113.025 127.828 114.49 127.868 115.977C127.91 117.468 128.311 118.986 129.025 120.522C129.039 120.55 129.046 120.583 129.051 120.616C129.296 123.057 130.138 124.796 131.427 126.002C132.721 127.212 134.48 127.901 136.549 128.236C136.643 128.248 136.731 128.307 136.778 128.399C136.851 128.545 136.79 128.722 136.643 128.796C134.152 130.025 131.818 130.733 129.725 130.66C127.787 130.594 126.062 129.867 124.61 128.288C124.542 129.015 124.662 129.619 124.933 130.124C125.277 130.766 125.873 131.262 126.649 131.653C126.687 131.67 126.722 131.696 126.753 131.731C126.859 131.854 126.845 132.04 126.722 132.147C125.803 132.942 125.671 134.039 125.977 134.952C126.107 135.342 126.317 135.696 126.581 135.979C126.835 136.255 127.139 136.46 127.465 136.557C128.047 136.734 128.721 136.559 129.336 135.814C129.397 135.736 129.499 135.689 129.605 135.703C129.765 135.724 129.881 135.873 129.859 136.033C129.758 136.8 129.822 137.374 130.088 137.761C130.321 138.1 130.727 138.308 131.333 138.393C131.88 137.423 132.441 136.548 133.091 135.821C133.794 135.037 134.593 134.429 135.578 134.072C136.867 133.605 138.475 133.68 140.116 133.756C140.735 133.784 141.362 133.813 141.961 133.813C144.149 133.81 145.851 133.263 147.027 132.257C148.215 131.24 148.87 129.742 148.953 127.854C148.997 126.842 148.686 125.895 148.413 125.069C148.146 124.255 147.913 123.55 148.05 122.924C148.253 121.983 148.856 121.553 149.532 121.067ZM131.453 138.997C131.418 138.992 131.382 138.981 131.349 138.962L131.453 138.997ZM147.428 127.358C147.439 127.196 147.583 127.075 147.746 127.087C147.908 127.099 148.031 127.243 148.017 127.406C147.923 128.567 147.6 129.546 147.053 130.341C146.504 131.141 145.733 131.752 144.74 132.175C144.589 132.239 144.417 132.168 144.354 132.019C144.29 131.868 144.361 131.696 144.509 131.632C145.396 131.252 146.082 130.712 146.567 130.006C147.055 129.298 147.343 128.416 147.428 127.358ZM131 118.894C131.04 118.736 131.201 118.639 131.359 118.679C131.517 118.719 131.613 118.88 131.573 119.038C131.387 119.776 131.715 120.522 132.304 121.131C132.709 121.549 133.235 121.903 133.81 122.15C134.385 122.398 135.003 122.537 135.587 122.528C136.438 122.516 137.226 122.186 137.714 121.407C137.801 121.268 137.982 121.225 138.119 121.313C138.258 121.4 138.301 121.582 138.213 121.718C137.605 122.691 136.636 123.101 135.594 123.118C134.984 123.127 134.35 122.998 133.756 122.766C133.754 123.208 133.911 123.646 134.178 124.045C134.515 124.55 135.026 124.989 135.618 125.291C136.207 125.593 136.877 125.759 137.53 125.714C138.197 125.669 138.852 125.402 139.397 124.841C139.51 124.723 139.696 124.72 139.814 124.833C139.932 124.947 139.934 125.133 139.821 125.251C139.166 125.931 138.376 126.252 137.57 126.306C136.806 126.358 136.031 126.167 135.349 125.82C134.67 125.473 134.081 124.963 133.688 124.376C133.306 123.805 133.105 123.158 133.178 122.507C132.688 122.249 132.243 121.921 131.877 121.544C131.156 120.791 130.76 119.854 131 118.894ZM128.99 132.649C128.829 132.628 128.716 132.477 128.737 132.316C128.759 132.156 128.909 132.043 129.07 132.064C129.949 132.184 130.828 132.243 131.689 132.208C132.542 132.173 133.376 132.045 134.171 131.797C134.326 131.748 134.491 131.835 134.541 131.991C134.583 132.13 134.52 132.279 134.392 132.342C133.85 132.637 133.306 132.935 132.792 133.253C132.276 133.574 131.778 133.921 131.323 134.318C131.201 134.424 131.014 134.412 130.908 134.289C130.802 134.167 130.814 133.98 130.937 133.874C131.418 133.454 131.941 133.088 132.483 132.751L132.507 132.737C132.245 132.765 131.981 132.784 131.715 132.796C130.816 132.833 129.9 132.774 128.99 132.649Z" fill="white"/>
<path fill-rule="evenodd" clip-rule="evenodd" d="M134.045 177.361C134.231 177.361 134.382 177.512 134.382 177.698C134.382 177.885 134.231 178.036 134.045 178.036C133.859 178.036 133.708 177.885 133.708 177.698C133.708 177.512 133.859 177.361 134.045 177.361ZM136.167 179.339C136.063 179.416 135.969 179.482 135.874 179.551C135.297 179.964 134.783 180.332 134.627 181.047C134.526 181.517 134.733 182.151 134.974 182.883C135.261 183.754 135.589 184.752 135.54 185.878C135.45 187.935 134.724 189.578 133.409 190.703C132.126 191.801 130.295 192.398 127.961 192.4C127.337 192.4 126.71 192.372 126.09 192.344C124.508 192.27 122.957 192.2 121.778 192.624C120.892 192.945 120.168 193.495 119.53 194.21C118.877 194.939 118.311 195.843 117.752 196.849C117.691 196.957 117.573 197.014 117.455 196.997C116.564 196.915 115.958 196.615 115.6 196.091C115.355 195.735 115.237 195.284 115.225 194.736C114.587 195.223 113.91 195.308 113.295 195.121C112.866 194.991 112.472 194.729 112.147 194.378C111.829 194.036 111.574 193.606 111.416 193.136C111.079 192.129 111.18 190.932 112.036 189.991C111.322 189.576 110.763 189.056 110.412 188.403C110.002 187.638 109.879 186.701 110.129 185.545C110.164 185.384 110.32 185.283 110.48 185.318C110.553 185.335 110.615 185.375 110.655 185.432C112.069 187.202 113.79 188.001 115.742 188.068C117.505 188.129 119.466 187.598 121.566 186.649C119.765 186.25 118.219 185.552 117.024 184.433C115.638 183.138 114.735 181.295 114.466 178.725C113.733 177.132 113.321 175.553 113.276 173.991C113.231 172.41 113.568 170.85 114.334 169.316C114.344 169.295 114.358 169.269 114.372 169.238C114.568 168.84 114.959 168.04 115.504 168.061C115.638 168.066 115.763 168.118 115.876 168.217C115.966 168.295 116.043 168.403 116.116 168.545C116.126 168.561 116.133 168.58 116.138 168.597C116.35 169.25 116.642 169.883 117.029 170.489C117.099 170.423 117.172 170.355 117.245 170.284C117.394 170.138 117.535 169.984 117.653 169.828C117.804 169.628 117.913 169.427 118.019 169.227C118.167 168.951 118.313 168.674 118.556 168.398C118.657 168.283 118.771 168.177 118.891 168.103C118.898 168.099 118.903 168.096 118.91 168.092C119.084 167.995 119.268 167.964 119.459 168.051C119.591 168.113 119.706 168.224 119.803 168.387C119.881 168.514 119.949 168.679 120.008 168.877C121.22 172.042 123.633 173.215 125.679 174.206C126.662 174.683 127.565 175.119 128.246 175.723C128.723 176.146 129.168 176.679 129.564 177.302C129.809 177.684 130.036 178.1 130.238 178.543C130.283 178.383 130.333 178.225 130.389 178.069C130.646 177.361 131.082 176.681 131.674 176.233C132.19 175.844 132.822 175.631 133.55 175.728C133.75 175.754 133.948 175.806 134.142 175.881C134.33 175.955 134.514 176.051 134.689 176.174C134.769 176.228 134.849 176.29 134.927 176.358C135 176.422 135.075 176.493 135.148 176.573C135.257 176.688 135.36 176.816 135.455 176.955C135.54 177.08 135.622 177.212 135.7 177.356L136.108 177.71L136.362 177.93L136.447 177.998C136.874 178.345 137.041 178.48 136.992 178.723C136.954 178.916 136.834 178.97 136.638 179.06C136.527 179.117 136.36 179.195 136.167 179.339ZM117.373 170.982C117.467 171.107 117.566 171.233 117.67 171.355C117.971 171.709 118.304 172.033 118.66 172.337C119.204 172.802 119.805 173.22 120.43 173.623C120.72 173.809 121.012 173.982 121.309 174.14C121.941 174.47 122.57 174.753 123.193 175.034C123.52 175.181 123.846 175.327 124.171 175.48C124.725 175.735 125.269 176.002 125.793 176.306C126.438 176.684 127.037 177.134 127.593 177.642C128.378 178.343 129.152 179.228 129.911 180.403L130.019 179.523C129.753 178.824 129.434 178.182 129.074 177.621C128.706 177.045 128.298 176.554 127.862 176.167C127.245 175.619 126.377 175.199 125.43 174.739C123.285 173.699 120.755 172.471 119.461 169.085C119.456 169.073 119.452 169.061 119.449 169.05C119.402 168.896 119.355 168.776 119.303 168.691C119.268 168.634 119.242 168.599 119.218 168.59C119.211 168.587 119.218 168.599 119.202 168.608C119.2 168.611 119.195 168.613 119.19 168.615C119.131 168.651 119.068 168.715 119.002 168.788C118.801 169.017 118.672 169.26 118.54 169.505C118.419 169.729 118.299 169.956 118.125 170.187C117.99 170.364 117.83 170.541 117.66 170.709C117.568 170.801 117.469 170.893 117.373 170.982ZM135.532 179.067C135.629 178.999 135.726 178.928 135.815 178.862C136.016 178.713 136.185 178.626 136.317 178.565C136.129 178.546 135.867 178.279 135.728 178.159L135.287 177.774C135.257 177.748 135.228 177.717 135.21 177.68C135.136 177.538 135.059 177.408 134.979 177.29C134.896 177.172 134.814 177.068 134.726 176.976C134.672 176.917 134.611 176.861 134.547 176.804C134.488 176.752 134.427 176.705 134.361 176.66C134.222 176.566 134.078 176.488 133.932 176.431C133.781 176.372 133.63 176.332 133.477 176.313C132.918 176.238 132.435 176.403 132.034 176.705C131.539 177.078 131.169 177.661 130.948 178.27C130.691 178.977 130.587 179.768 130.488 180.547L130.467 180.712L130.394 181.304C130.382 181.392 130.335 181.472 130.252 181.521C130.142 181.59 130.003 181.573 129.908 181.493C129.88 181.472 129.856 181.444 129.838 181.413C129.795 181.342 129.755 181.271 129.713 181.203C129.163 180.316 128.565 179.499 127.9 178.779C127.773 178.64 127.641 178.506 127.506 178.373C126.304 177.215 125.067 176.547 123.806 175.959C123.572 175.853 123.339 175.749 123.103 175.645C122.422 175.343 121.734 175.037 121.059 174.678C120.124 174.189 119.176 173.597 118.214 172.752C117.856 172.438 117.535 172.11 117.245 171.771C117.069 171.565 116.901 171.351 116.746 171.126C116.684 171.039 116.626 170.952 116.567 170.862C116.138 170.201 115.815 169.507 115.584 168.795C115.551 168.731 115.518 168.686 115.489 168.66C115.482 168.653 115.487 168.651 115.485 168.651C115.322 168.644 115.044 169.215 114.905 169.498C114.891 169.526 114.876 169.555 114.865 169.581C114.143 171.025 113.828 172.49 113.868 173.977C113.91 175.468 114.311 176.986 115.025 178.522C115.039 178.55 115.046 178.583 115.051 178.616C115.296 181.057 116.138 182.796 117.427 184.002C118.721 185.212 120.48 185.901 122.549 186.236C122.643 186.248 122.731 186.307 122.778 186.399C122.851 186.545 122.79 186.722 122.643 186.796C120.152 188.025 117.818 188.733 115.725 188.66C113.787 188.594 112.062 187.867 110.61 186.288C110.542 187.015 110.662 187.619 110.933 188.124C111.277 188.766 111.873 189.262 112.649 189.653C112.687 189.67 112.722 189.696 112.753 189.731C112.859 189.854 112.845 190.04 112.722 190.147C111.803 190.942 111.671 192.039 111.977 192.952C112.107 193.342 112.317 193.696 112.581 193.979C112.835 194.255 113.139 194.46 113.465 194.557C114.047 194.734 114.721 194.559 115.336 193.814C115.397 193.736 115.499 193.689 115.605 193.703C115.765 193.724 115.881 193.873 115.859 194.033C115.758 194.8 115.822 195.374 116.088 195.761C116.321 196.1 116.727 196.308 117.333 196.393C117.88 195.423 118.441 194.548 119.091 193.821C119.794 193.037 120.593 192.429 121.578 192.072C122.867 191.605 124.475 191.68 126.116 191.756C126.735 191.784 127.362 191.813 127.961 191.813C130.149 191.81 131.851 191.263 133.027 190.257C134.215 189.24 134.87 187.742 134.953 185.854C134.997 184.842 134.686 183.895 134.413 183.069C134.146 182.255 133.913 181.55 134.05 180.924C134.253 179.983 134.856 179.553 135.532 179.067ZM117.453 196.997C117.418 196.992 117.382 196.981 117.349 196.962L117.453 196.997ZM133.428 185.358C133.439 185.196 133.583 185.075 133.746 185.087C133.908 185.099 134.031 185.243 134.017 185.406C133.923 186.567 133.6 187.546 133.053 188.341C132.504 189.141 131.733 189.752 130.74 190.175C130.589 190.239 130.417 190.168 130.354 190.019C130.29 189.868 130.361 189.696 130.509 189.632C131.396 189.252 132.082 188.712 132.567 188.006C133.055 187.298 133.343 186.416 133.428 185.358ZM117 176.894C117.04 176.736 117.201 176.639 117.359 176.679C117.517 176.719 117.613 176.88 117.573 177.038C117.387 177.776 117.715 178.522 118.304 179.131C118.709 179.549 119.235 179.903 119.81 180.15C120.385 180.398 121.003 180.537 121.587 180.528C122.438 180.516 123.226 180.186 123.714 179.407C123.801 179.268 123.982 179.225 124.119 179.313C124.258 179.4 124.301 179.582 124.213 179.718C123.605 180.691 122.636 181.101 121.594 181.118C120.984 181.127 120.35 180.998 119.756 180.766C119.754 181.208 119.911 181.646 120.178 182.045C120.515 182.55 121.026 182.989 121.618 183.291C122.207 183.593 122.877 183.759 123.53 183.714C124.197 183.669 124.852 183.402 125.397 182.841C125.51 182.723 125.696 182.72 125.814 182.833C125.932 182.947 125.934 183.133 125.821 183.251C125.166 183.931 124.376 184.252 123.57 184.306C122.806 184.358 122.031 184.167 121.349 183.82C120.67 183.473 120.081 182.963 119.688 182.376C119.306 181.805 119.105 181.158 119.178 180.507C118.688 180.249 118.243 179.921 117.877 179.544C117.156 178.791 116.76 177.854 117 176.894ZM114.99 190.649C114.829 190.628 114.716 190.477 114.737 190.316C114.759 190.156 114.909 190.043 115.07 190.064C115.949 190.184 116.828 190.243 117.689 190.208C118.542 190.173 119.376 190.045 120.171 189.797C120.326 189.748 120.491 189.835 120.541 189.991C120.583 190.13 120.52 190.279 120.392 190.342C119.85 190.637 119.306 190.935 118.792 191.253C118.276 191.574 117.778 191.921 117.323 192.318C117.201 192.424 117.014 192.412 116.908 192.289C116.802 192.167 116.814 191.98 116.937 191.874C117.418 191.454 117.941 191.088 118.483 190.751L118.507 190.737C118.245 190.765 117.981 190.784 117.715 190.796C116.816 190.833 115.9 190.774 114.99 190.649Z" fill="white"/>
<rect x="0.5" y="465.5" width="399" height="134" rx="12.5" fill="black" stroke="black"/>
<circle cx="200.5" cy="532.5" r="39" fill="white" stroke="black"/>
<circle cx="200.5" cy="532.5" r="33" fill="white" stroke="black"/>
<circle cx="306" cy="77" r="37" fill="#FCFF59"/>
<defs>
<linearGradient id="paint0_linear" x1="200" y1="0" x2="200" y2="600" gradientUnits="userSpaceOnUse">
<stop stop-color="#2D4DFA"/>
<stop offset="1" stop-color="#2874DE"/>
</linearGradient>
</defs>
</svg>
