<svg width="1825" height="1825" viewBox="0 0 1825 1825" fill="none" xmlns="http://www.w3.org/2000/svg">
  <path d="M1825 912.5C1825 1062.56 1787.99 1210.31 1717.25 1342.65C1646.51 1474.99 1544.23 1587.85 1419.46 1671.22C1294.69 1754.59 1151.28 1805.9 1001.94 1820.61C852.602 1835.31 701.94 1812.97 563.301 1755.54C424.663 1698.11 302.326 1607.38 207.128 1491.38C111.93 1375.38 46.809 1237.7 17.5334 1090.52C-11.7421 943.342 -4.26862 791.215 39.2919 647.615C82.8525 504.015 161.156 373.375 267.265 267.265L912.5 912.5L1825 912.5Z" fill="#8BF789" />
  <path fill-rule="evenodd" clip-rule="evenodd" d="M255.783 862L964.602 1122.71L853.16 1425.7L306.895 1224.78L251.134 1285.58L248.054 1203.14L144.341 1164.99L255.783 862Z" fill="white" />
  <rect width="299.358" height="39.1318" rx="3" transform="matrix(-0.938531 -0.345194 -0.345194 0.938531 906.452 1161.78)" fill="url(#paint0_linear)" />
  <rect width="240.66" height="39.1317" rx="3" transform="matrix(-0.938531 -0.345194 -0.345194 0.938531 884.164 1222.37)" fill="url(#paint1_linear)" />
  <rect width="240.66" height="39.1317" rx="3" transform="matrix(-0.938531 -0.345194 -0.345194 0.938531 436.842 1174.59)" fill="url(#paint2_linear)" />
  <path fill-rule="evenodd" clip-rule="evenodd" d="M1414.36 1082L1048 1352.35L1163.56 1508.95L1445.9 1300.6L1488.42 1326.4L1476.31 1278.16L1529.92 1238.6L1414.36 1082Z" fill="white" />
  <rect x="1088.24" y="1365.16" width="180.471" height="23.591" rx="3" transform="rotate(-36.4247 1088.24 1365.16)" fill="url(#paint3_linear)" />
  <rect x="1111.35" y="1396.48" width="145.085" height="23.591" rx="3" transform="rotate(-36.4247 1111.35 1396.48)" fill="url(#paint4_linear)" />
  <rect x="1362.23" y="1293.45" width="145.084" height="23.591" rx="3" transform="rotate(-36.4247 1362.23 1293.45)" fill="url(#paint5_linear)" />
  <circle cx="831.5" cy="493.5" r="133.5" fill="#FC7676" />
  <circle cx="1169.5" cy="493.5" r="133.5" fill="#FC7676" />
  <circle cx="1507.5" cy="493.5" r="133.5" fill="#FC7676" />
  <defs>
    <linearGradient id="paint0_linear" x1="61.6325" y1="39.1318" x2="248.487" y2="51.8496" gradientUnits="userSpaceOnUse">
      <stop stop-color="#60E6E6" />
      <stop offset="1" stop-color="#7038E7" />
    </linearGradient>
    <linearGradient id="paint1_linear" x1="49.5477" y1="39.1318" x2="200.009" y2="47.3646" gradientUnits="userSpaceOnUse">
      <stop stop-color="#E6C860" />
      <stop offset="1" stop-color="#E73896" />
    </linearGradient>
    <linearGradient id="paint2_linear" x1="49.5477" y1="39.1317" x2="200.009" y2="47.3646" gradientUnits="userSpaceOnUse">
      <stop stop-color="#E66060" />
      <stop offset="1" stop-color="#E338E7" />
    </linearGradient>
    <linearGradient id="paint3_linear" x1="1125.4" y1="1388.75" x2="1238.04" y2="1396.42" gradientUnits="userSpaceOnUse">
      <stop stop-color="#60E6E6" />
      <stop offset="1" stop-color="#7038E7" />
    </linearGradient>
    <linearGradient id="paint4_linear" x1="1141.22" y1="1420.07" x2="1231.93" y2="1425.04" gradientUnits="userSpaceOnUse">
      <stop stop-color="#E6C860" />
      <stop offset="1" stop-color="#E73896" />
    </linearGradient>
    <linearGradient id="paint5_linear" x1="1392.1" y1="1317.04" x2="1482.81" y2="1322" gradientUnits="userSpaceOnUse">
      <stop stop-color="#E66060" />
      <stop offset="1" stop-color="#E338E7" />
    </linearGradient>
  </defs>
</svg>
