<svg width="854" height="967" viewBox="0 0 854 967" fill="none" xmlns="http://www.w3.org/2000/svg">
  <rect width="854" height="967" fill="white" />
  <mask id="path-2-inside-1" fill="white">
    <path fill-rule="evenodd" clip-rule="evenodd" d="M846 53H460V218H757.479L773.5 257L789.521 218H846V53Z" />
  </mask>
  <path fill-rule="evenodd" clip-rule="evenodd" d="M846 53H460V218H757.479L773.5 257L789.521 218H846V53Z" fill="white" />
  <path d="M460 53V52H459V53H460ZM846 53H847V52H846V53ZM460 218H459V219H460V218ZM757.479 218L758.404 217.62L758.149 217H757.479V218ZM773.5 257L772.575 257.38L773.5 259.632L774.425 257.38L773.5 257ZM789.521 218V217H788.851L788.596 217.62L789.521 218ZM846 218V219H847V218H846ZM460 54H846V52H460V54ZM461 218V53H459V218H461ZM757.479 217H460V219H757.479V217ZM774.425 256.62L758.404 217.62L756.554 218.38L772.575 257.38L774.425 256.62ZM788.596 217.62L772.575 256.62L774.425 257.38L790.446 218.38L788.596 217.62ZM846 217H789.521V219H846V217ZM845 53V218H847V53H845Z" fill="black" mask="url(#path-2-inside-1)" />
  <rect x="481" y="82" width="153" height="20" rx="3" fill="url(#paint0_linear)" />
  <rect x="481" y="115" width="123" height="20" rx="3" fill="url(#paint1_linear)" />
  <rect x="704" y="171" width="123" height="20" rx="3" fill="url(#paint2_linear)" />
  <mask id="path-7-inside-2" fill="white">
    <path fill-rule="evenodd" clip-rule="evenodd" d="M846 710H460V875H757.479L773.5 914L789.521 875H846V710Z" />
  </mask>
  <path fill-rule="evenodd" clip-rule="evenodd" d="M846 710H460V875H757.479L773.5 914L789.521 875H846V710Z" fill="white" />
  <path d="M460 710V709H459V710H460ZM846 710H847V709H846V710ZM460 875H459V876H460V875ZM757.479 875L758.404 874.62L758.149 874H757.479V875ZM773.5 914L772.575 914.38L773.5 916.632L774.425 914.38L773.5 914ZM789.521 875V874H788.851L788.596 874.62L789.521 875ZM846 875V876H847V875H846ZM460 711H846V709H460V711ZM461 875V710H459V875H461ZM757.479 874H460V876H757.479V874ZM774.425 913.62L758.404 874.62L756.554 875.38L772.575 914.38L774.425 913.62ZM788.596 874.62L772.575 913.62L774.425 914.38L790.446 875.38L788.596 874.62ZM846 874H789.521V876H846V874ZM845 710V875H847V710H845Z" fill="black" mask="url(#path-7-inside-2)" />
  <rect x="481" y="739" width="153" height="20" rx="3" fill="url(#paint3_linear)" />
  <rect x="481" y="772" width="123" height="20" rx="3" fill="url(#paint4_linear)" />
  <rect x="704" y="828" width="123" height="20" rx="3" fill="url(#paint5_linear)" />
  <mask id="path-12-inside-3" fill="white">
    <path fill-rule="evenodd" clip-rule="evenodd" d="M9 369H395V534H97.5215L81.5 573L65.4785 534H9V369Z" />
  </mask>
  <path fill-rule="evenodd" clip-rule="evenodd" d="M9 369H395V534H97.5215L81.5 573L65.4785 534H9V369Z" fill="white" />
  <path d="M395 369V368H396V369H395ZM9 369H8V368H9V369ZM395 534H396V535H395V534ZM97.5215 534L96.5965 533.62L96.8512 533H97.5215V534ZM81.5 573L82.425 573.38L81.5 575.632L80.575 573.38L81.5 573ZM65.4785 534V533H66.1488L66.4035 533.62L65.4785 534ZM9 534V535H8V534H9ZM395 370H9V368H395V370ZM394 534V369H396V534H394ZM97.5215 533H395V535H97.5215V533ZM80.575 572.62L96.5965 533.62L98.4465 534.38L82.425 573.38L80.575 572.62ZM66.4035 533.62L82.425 572.62L80.575 573.38L64.5535 534.38L66.4035 533.62ZM9 533H65.4785V535H9V533ZM10 369V534H8V369H10Z" fill="black" mask="url(#path-12-inside-3)" />
  <rect width="153" height="20" rx="3" transform="matrix(-1 0 0 1 374 398)" fill="url(#paint6_linear)" />
  <rect width="123" height="20" rx="3" transform="matrix(-1 0 0 1 374 431)" fill="url(#paint7_linear)" />
  <rect width="123" height="20" rx="3" transform="matrix(-1 0 0 1 151 487)" fill="url(#paint8_linear)" />
  <defs>
    <linearGradient id="paint0_linear" x1="512.5" y1="102" x2="608" y2="108.5" gradientUnits="userSpaceOnUse">
      <stop stop-color="#60E6E6" />
      <stop offset="1" stop-color="#7038E7" />
    </linearGradient>
    <linearGradient id="paint1_linear" x1="506.324" y1="135" x2="583.223" y2="139.208" gradientUnits="userSpaceOnUse">
      <stop stop-color="#E6C860" />
      <stop offset="1" stop-color="#E73896" />
    </linearGradient>
    <linearGradient id="paint2_linear" x1="729.324" y1="191" x2="806.223" y2="195.208" gradientUnits="userSpaceOnUse">
      <stop stop-color="#E66060" />
      <stop offset="1" stop-color="#E338E7" />
    </linearGradient>
    <linearGradient id="paint3_linear" x1="512.5" y1="759" x2="608" y2="765.5" gradientUnits="userSpaceOnUse">
      <stop stop-color="#60E6E6" />
      <stop offset="1" stop-color="#7038E7" />
    </linearGradient>
    <linearGradient id="paint4_linear" x1="506.324" y1="792" x2="583.223" y2="796.208" gradientUnits="userSpaceOnUse">
      <stop stop-color="#E6C860" />
      <stop offset="1" stop-color="#E73896" />
    </linearGradient>
    <linearGradient id="paint5_linear" x1="729.324" y1="848" x2="806.223" y2="852.208" gradientUnits="userSpaceOnUse">
      <stop stop-color="#E66060" />
      <stop offset="1" stop-color="#E338E7" />
    </linearGradient>
    <linearGradient id="paint6_linear" x1="31.5" y1="20" x2="127" y2="26.5" gradientUnits="userSpaceOnUse">
      <stop stop-color="#60E6E6" />
      <stop offset="1" stop-color="#7038E7" />
    </linearGradient>
    <linearGradient id="paint7_linear" x1="25.3235" y1="20" x2="102.223" y2="24.2078" gradientUnits="userSpaceOnUse">
      <stop stop-color="#E6C860" />
      <stop offset="1" stop-color="#E73896" />
    </linearGradient>
    <linearGradient id="paint8_linear" x1="25.3235" y1="20" x2="102.223" y2="24.2078" gradientUnits="userSpaceOnUse">
      <stop stop-color="#E66060" />
      <stop offset="1" stop-color="#E338E7" />
    </linearGradient>
  </defs>
</svg>
