<svg width="1825" height="1825" viewBox="0 0 1825 1825" fill="none" xmlns="http://www.w3.org/2000/svg">
<path d="M1825 912.5C1825 1062.56 1787.99 1210.31 1717.25 1342.65C1646.51 1474.99 1544.23 1587.85 1419.46 1671.22C1294.69 1754.59 1151.28 1805.9 1001.94 1820.61C852.602 1835.31 701.94 1812.97 563.301 1755.54C424.663 1698.11 302.326 1607.38 207.128 1491.38C111.93 1375.38 46.809 1237.7 17.5334 1090.52C-11.7421 943.342 -4.26862 791.215 39.2919 647.615C82.8525 504.015 161.156 373.375 267.265 267.265L912.5 912.5L1825 912.5Z" fill="#8BF789"/>
<mask id="path-2-inside-1" fill="white">
<path fill-rule="evenodd" clip-rule="evenodd" d="M255.783 862L964.602 1122.71L853.16 1425.7L306.895 1224.78L251.134 1285.58L248.054 1203.14L144.341 1164.99L255.783 862Z"/>
</mask>
<path fill-rule="evenodd" clip-rule="evenodd" d="M255.783 862L964.602 1122.71L853.16 1425.7L306.895 1224.78L251.134 1285.58L248.054 1203.14L144.341 1164.99L255.783 862Z" fill="white"/>
<path d="M964.602 1122.71L964.947 1121.77L965.885 1122.11L965.54 1123.05L964.602 1122.71ZM255.783 862L254.844 861.655L255.189 860.716L256.128 861.061L255.783 862ZM853.16 1425.7L854.099 1426.04L853.753 1426.98L852.815 1426.64L853.16 1425.7ZM306.895 1224.78L306.158 1224.1L306.611 1223.61L307.24 1223.84L306.895 1224.78ZM251.134 1285.58L251.871 1286.25L250.225 1288.05L250.135 1285.61L251.134 1285.58ZM248.054 1203.14L248.399 1202.2L249.028 1202.43L249.053 1203.1L248.054 1203.14ZM144.341 1164.99L143.996 1165.93L143.057 1165.59L143.403 1164.65L144.341 1164.99ZM964.256 1123.64L255.438 862.939L256.128 861.061L964.947 1121.77L964.256 1123.64ZM852.222 1425.35L963.663 1122.36L965.54 1123.05L854.099 1426.04L852.222 1425.35ZM307.24 1223.84L853.505 1424.76L852.815 1426.64L306.55 1225.72L307.24 1223.84ZM250.397 1284.9L306.158 1224.1L307.632 1225.46L251.871 1286.25L250.397 1284.9ZM249.053 1203.1L252.133 1285.54L250.135 1285.61L247.055 1203.18L249.053 1203.1ZM144.686 1164.05L248.399 1202.2L247.709 1204.08L143.996 1165.93L144.686 1164.05ZM256.721 862.345L145.28 1165.34L143.403 1164.65L254.844 861.655L256.721 862.345Z" fill="black" mask="url(#path-2-inside-1)"/>
<rect width="299.358" height="39.1318" rx="3" transform="matrix(-0.938531 -0.345194 -0.345194 0.938531 906.452 1161.78)" fill="url(#paint0_linear)"/>
<rect width="240.66" height="39.1317" rx="3" transform="matrix(-0.938531 -0.345194 -0.345194 0.938531 884.164 1222.37)" fill="url(#paint1_linear)"/>
<rect width="240.66" height="39.1317" rx="3" transform="matrix(-0.938531 -0.345194 -0.345194 0.938531 436.842 1174.59)" fill="url(#paint2_linear)"/>
<mask id="path-7-inside-2" fill="white">
<path fill-rule="evenodd" clip-rule="evenodd" d="M1414.36 1082L1048 1352.35L1163.56 1508.95L1445.9 1300.6L1488.42 1326.4L1476.31 1278.16L1529.92 1238.6L1414.36 1082Z"/>
</mask>
<path fill-rule="evenodd" clip-rule="evenodd" d="M1414.36 1082L1048 1352.35L1163.56 1508.95L1445.9 1300.6L1488.42 1326.4L1476.31 1278.16L1529.92 1238.6L1414.36 1082Z" fill="white"/>
<path d="M1048 1352.35L1047.41 1351.54L1046.6 1352.13L1047.2 1352.94L1048 1352.35ZM1414.36 1082L1415.16 1081.41L1414.57 1080.6L1413.76 1081.2L1414.36 1082ZM1163.56 1508.95L1162.76 1509.54L1163.35 1510.35L1164.16 1509.75L1163.56 1508.95ZM1445.9 1300.6L1446.42 1299.75L1445.85 1299.4L1445.31 1299.8L1445.9 1300.6ZM1488.42 1326.4L1487.9 1327.25L1489.98 1328.51L1489.39 1326.15L1488.42 1326.4ZM1476.31 1278.16L1475.72 1277.35L1475.18 1277.75L1475.34 1278.4L1476.31 1278.16ZM1529.92 1238.6L1530.51 1239.41L1531.32 1238.81L1530.72 1238.01L1529.92 1238.6ZM1048.59 1353.15L1414.95 1082.8L1413.76 1081.2L1047.41 1351.54L1048.59 1353.15ZM1164.37 1508.35L1048.8 1351.75L1047.2 1352.94L1162.76 1509.54L1164.37 1508.35ZM1445.31 1299.8L1162.97 1508.14L1164.16 1509.75L1446.5 1301.41L1445.31 1299.8ZM1488.94 1325.54L1446.42 1299.75L1445.38 1301.46L1487.9 1327.25L1488.94 1325.54ZM1475.34 1278.4L1487.45 1326.64L1489.39 1326.15L1477.28 1277.92L1475.34 1278.4ZM1529.32 1237.8L1475.72 1277.35L1476.91 1278.96L1530.51 1239.41L1529.32 1237.8ZM1413.55 1082.59L1529.11 1239.2L1530.72 1238.01L1415.16 1081.41L1413.55 1082.59Z" fill="black" mask="url(#path-7-inside-2)"/>
<rect x="1088.24" y="1365.16" width="180.471" height="23.591" rx="3" transform="rotate(-36.4247 1088.24 1365.16)" fill="url(#paint3_linear)"/>
<rect x="1111.35" y="1396.48" width="145.085" height="23.591" rx="3" transform="rotate(-36.4247 1111.35 1396.48)" fill="url(#paint4_linear)"/>
<rect x="1362.23" y="1293.45" width="145.084" height="23.591" rx="3" transform="rotate(-36.4247 1362.23 1293.45)" fill="url(#paint5_linear)"/>
<circle cx="831.5" cy="493.5" r="133.5" fill="#FC7676"/>
<circle cx="1169.5" cy="493.5" r="133.5" fill="#FC7676"/>
<circle cx="1507.5" cy="493.5" r="133.5" fill="#FC7676"/>
<defs>
<linearGradient id="paint0_linear" x1="61.6325" y1="39.1318" x2="248.487" y2="51.8496" gradientUnits="userSpaceOnUse">
<stop stop-color="#60E6E6"/>
<stop offset="1" stop-color="#7038E7"/>
</linearGradient>
<linearGradient id="paint1_linear" x1="49.5477" y1="39.1318" x2="200.009" y2="47.3646" gradientUnits="userSpaceOnUse">
<stop stop-color="#E6C860"/>
<stop offset="1" stop-color="#E73896"/>
</linearGradient>
<linearGradient id="paint2_linear" x1="49.5477" y1="39.1317" x2="200.009" y2="47.3646" gradientUnits="userSpaceOnUse">
<stop stop-color="#E66060"/>
<stop offset="1" stop-color="#E338E7"/>
</linearGradient>
<linearGradient id="paint3_linear" x1="1125.4" y1="1388.75" x2="1238.04" y2="1396.42" gradientUnits="userSpaceOnUse">
<stop stop-color="#60E6E6"/>
<stop offset="1" stop-color="#7038E7"/>
</linearGradient>
<linearGradient id="paint4_linear" x1="1141.22" y1="1420.07" x2="1231.93" y2="1425.04" gradientUnits="userSpaceOnUse">
<stop stop-color="#E6C860"/>
<stop offset="1" stop-color="#E73896"/>
</linearGradient>
<linearGradient id="paint5_linear" x1="1392.1" y1="1317.04" x2="1482.81" y2="1322" gradientUnits="userSpaceOnUse">
<stop stop-color="#E66060"/>
<stop offset="1" stop-color="#E338E7"/>
</linearGradient>
</defs>
</svg>
