<svg width="410" height="410" viewBox="0 0 410 410" fill="none" xmlns="http://www.w3.org/2000/svg">
<g filter="url(#filter0_d)">
<circle cx="205" cy="201" r="201" fill="url(#paint0_linear)"/>
<path fill-rule="evenodd" clip-rule="evenodd" d="M130 71C130 67.6863 132.686 65 136 65H161C164.314 65 167 67.6863 167 71V173.648L271.406 69.2426C273.749 66.8995 277.548 66.8995 279.891 69.2426L295.759 85.1108C298.102 87.4539 298.102 91.2529 295.759 93.5961L191.354 198.001L295.34 301.986C297.683 304.33 297.683 308.128 295.34 310.472L279.472 326.34C277.128 328.683 273.329 328.683 270.986 326.34L167 222.353V325C167 328.314 164.314 331 161 331H136C132.686 331 130 328.314 130 325V71Z" fill="white"/>
</g>
<defs>
<filter id="filter0_d" x="0" y="0" width="410" height="410" filterUnits="userSpaceOnUse" color-interpolation-filters="sRGB">
<feFlood flood-opacity="0" result="BackgroundImageFix"/>
<feColorMatrix in="SourceAlpha" type="matrix" values="0 0 0 0 0 0 0 0 0 0 0 0 0 0 0 0 0 0 127 0"/>
<feOffset dy="4"/>
<feGaussianBlur stdDeviation="2"/>
<feColorMatrix type="matrix" values="0 0 0 0 0 0 0 0 0 0 0 0 0 0 0 0 0 0 0.25 0"/>
<feBlend mode="normal" in2="BackgroundImageFix" result="effect1_dropShadow"/>
<feBlend mode="normal" in="SourceGraphic" in2="effect1_dropShadow" result="shape"/>
</filter>
<linearGradient id="paint0_linear" x1="361" y1="-102" x2="3.99996" y2="615" gradientUnits="userSpaceOnUse">
<stop stop-color="#38C0F2"/>
<stop offset="1" stop-color="#385EF2"/>
</linearGradient>
</defs>
</svg>
